<?xml version="1.0" standalone="no"?>
<!DOCTYPE svg PUBLIC "-//W3C//DTD SVG 20010904//EN"
 "http://www.w3.org/TR/2001/REC-SVG-20010904/DTD/svg10.dtd">
<svg version="1.0" xmlns="http://www.w3.org/2000/svg"
 width="480.000000pt" height="480.000000pt" viewBox="0 0 480.000000 480.000000"
 preserveAspectRatio="xMidYMid meet">
<metadata>
Created by potrace 1.14, written by Peter Selinger 2001-2017
</metadata>
<g transform="translate(0.000000,480.000000) scale(0.100000,-0.100000)"
fill="#000000" stroke="none">
<path d="M0 2400 l0 -2400 470 0 471 0 49 104 c28 56 50 112 51 122 0 10 15
59 32 108 29 83 36 92 79 120 29 19 47 39 48 51 1 52 17 46 91 -36 85 -95 197
-191 212 -182 6 3 7 1 3 -5 -8 -14 80 -90 229 -196 l120 -86 71 2 72 2 -32 34
c-42 46 -74 61 -124 58 -24 -1 -43 2 -43 8 -1 6 -2 16 -3 21 0 6 -9 22 -19 37
-10 15 -16 32 -13 37 4 5 1 13 -5 17 -8 4 -9 3 -5 -4 4 -7 3 -12 -2 -12 -6 0
-12 6 -15 14 -4 10 -14 12 -29 8 -21 -5 -22 -4 -8 14 13 17 13 18 -1 7 -8 -7
-25 -9 -38 -6 -17 4 -19 8 -9 14 10 7 9 9 -4 9 -10 0 -18 4 -18 9 0 5 -15 8
-32 6 -19 -3 -27 -1 -20 3 9 6 4 14 -17 30 -28 20 -29 20 -24 1 4 -15 2 -18
-11 -13 -9 3 -16 10 -16 15 0 5 -5 9 -11 9 -21 0 -79 53 -79 72 0 14 -5 18
-16 14 -18 -7 -49 23 -60 58 -7 24 -39 58 -47 50 -3 -3 -5 1 -4 8 0 7 -1 24
-2 38 -1 19 -3 22 -10 10 -6 -8 -7 -19 -3 -25 3 -5 -1 -4 -10 3 -13 10 -14 20
-7 45 13 45 11 55 -6 33 -8 -11 -16 -31 -16 -45 -2 -24 -2 -24 -6 -3 -5 24 34
112 55 125 6 4 21 26 32 48 12 23 28 39 38 39 10 0 71 -55 137 -122 342 -350
436 -440 453 -433 9 3 14 3 10 0 -6 -7 61 -85 74 -85 4 0 21 -14 38 -31 24
-25 33 -29 44 -20 11 9 15 8 20 -4 3 -9 2 -13 -4 -10 -6 3 -10 2 -10 -2 0 -5
20 -26 45 -47 32 -26 53 -36 72 -34 32 4 42 25 16 35 -10 4 -24 15 -31 25 -7
10 -18 16 -23 13 -5 -4 -9 -2 -9 2 0 10 -92 78 -101 75 -4 -1 -4 8 -1 20 4 17
2 20 -11 15 -10 -4 -17 -2 -17 4 0 6 -9 8 -20 4 -19 -6 -24 2 -23 42 0 6 -5 9
-12 6 -7 -2 -16 4 -19 15 -5 14 -13 17 -36 14 -25 -3 -30 -1 -30 15 0 11 -16
38 -36 61 -20 24 -34 49 -31 56 7 16 75 26 80 11 3 -5 8 -7 12 -3 4 4 -3 15
-14 25 -12 9 -21 23 -21 30 0 7 -5 13 -11 13 -5 0 -7 -5 -4 -10 4 -7 -5 -8
-27 -4 -18 4 -45 8 -60 8 -26 1 -29 16 -2 16 8 0 14 4 14 9 0 9 -30 25 -42 23
-11 -3 -30 37 -23 48 3 5 1 18 -5 27 -10 16 -11 15 -7 -5 6 -26 -1 -28 -19 -4
-10 12 -13 13 -14 3 0 -11 -3 -11 -16 0 -14 12 -14 14 3 26 17 13 17 15 0 45
-17 30 -17 31 3 45 12 9 19 21 16 30 -3 8 -1 11 4 8 6 -3 10 1 10 9 0 10 6 13
17 9 10 -4 14 -2 10 4 -8 13 17 36 28 25 5 -4 5 -1 1 6 -11 19 3 50 25 57 11
4 19 15 19 29 0 28 36 76 56 76 11 0 12 4 5 19 -18 33 -14 114 5 107 6 -2 15
-2 19 2 4 4 19 7 33 8 19 0 27 5 26 17 -1 13 1 15 10 8 9 -8 12 -5 12 12 -1
14 4 21 13 19 12 -3 12 0 2 12 -10 12 -9 14 8 9 12 -3 21 -12 21 -20 0 -13 3
-13 16 -3 13 11 16 10 21 -8 6 -24 19 -29 25 -10 5 15 -131 137 -154 138 -12
0 -18 -8 -18 -21 0 -11 3 -18 8 -16 4 3 15 -5 24 -18 l18 -23 -30 14 c-16 9
-32 20 -36 25 -12 20 -15 70 -5 82 7 9 1 26 -20 57 -17 25 -34 47 -40 48 -5 2
-9 10 -9 17 0 31 -52 74 -123 101 -39 15 -77 32 -84 36 -6 5 -22 6 -36 3 -22
-6 -24 -4 -20 17 3 16 -4 32 -26 53 -17 17 -31 34 -31 38 0 4 -18 35 -40 68
-22 33 -40 64 -40 69 0 5 -6 8 -12 6 -7 -1 -10 -1 -5 1 12 8 8 28 -18 87 -14
32 -30 92 -36 134 -11 70 -15 80 -47 107 -20 17 -42 29 -49 27 -7 -2 -16 4
-19 13 -4 9 -20 23 -37 31 -37 20 -53 35 -105 102 -23 30 -42 64 -42 75 0 29
-34 83 -60 97 -11 6 -18 15 -15 20 3 6 -1 7 -9 4 -9 -3 -16 -1 -16 5 0 6 6 11
13 11 8 0 9 3 1 8 -6 4 -18 29 -27 56 -9 27 -25 55 -34 63 -10 8 -12 12 -5 8
6 -3 12 -2 12 4 0 15 -30 41 -47 41 -20 0 -42 29 -43 54 0 11 -12 34 -26 53
-14 18 -28 49 -31 68 -4 25 -9 32 -17 26 -7 -6 -17 -6 -26 -1 -13 8 -13 10 1
10 32 0 30 31 -6 88 -33 55 -43 86 -65 202 -5 30 -17 80 -25 110 -32 115 -13
153 78 154 55 1 90 -12 302 -114 170 -81 196 -92 259 -101 34 -5 104 -16 156
-24 180 -27 261 -50 371 -106 34 -16 65 -29 71 -27 17 6 10 478 -8 590 -9 51
-18 135 -21 186 -5 83 -4 92 12 92 12 0 16 6 12 20 -3 13 0 20 9 20 12 0 13
-8 8 -35 -6 -31 5 -121 25 -200 4 -16 4 -41 1 -55 -8 -30 -2 -52 12 -44 6 4
14 0 19 -7 7 -11 9 -11 9 -1 0 7 -7 15 -15 18 -8 4 -15 16 -15 28 0 18 3 16
20 -11 11 -18 27 -33 35 -33 21 0 19 13 -5 28 -11 7 -20 20 -19 30 0 14 3 13
16 -5 8 -13 24 -23 35 -23 18 0 18 -1 4 -16 -9 -8 -16 -20 -16 -26 0 -6 3 -9
6 -5 4 3 13 -1 21 -9 12 -11 12 -18 4 -28 -8 -10 -9 -16 -1 -21 5 -3 10 1 10
9 0 9 5 16 11 16 5 0 8 -4 4 -9 -3 -6 4 -9 15 -8 24 2 24 -1 0 27 -24 28 -26
44 -4 36 14 -5 15 -4 4 9 -7 8 -9 15 -5 15 4 0 2 7 -5 15 -7 9 -10 18 -6 22 7
8 40 -26 44 -47 2 -8 9 -18 15 -22 9 -6 9 -8 0 -8 -22 0 -14 -34 10 -46 38
-17 52 -5 26 22 l-22 23 26 39 26 39 -45 44 -44 43 -25 -24 c-14 -13 -25 -19
-25 -13 0 6 6 13 14 16 7 3 13 14 12 25 -1 19 -78 121 -137 184 -15 15 -24 30
-21 33 3 3 -4 14 -16 25 -20 19 -30 69 -17 82 7 7 146 -138 248 -259 40 -47
54 -59 60 -47 4 8 5 19 2 25 -4 6 -1 9 7 7 7 -1 27 7 43 18 17 12 48 27 70 35
52 17 51 16 28 36 -25 22 -53 93 -53 134 0 16 7 46 16 67 17 42 73 104 86 96
4 -3 11 2 14 10 4 11 9 12 17 5 7 -6 26 -18 43 -28 35 -21 64 -75 64 -118 -1
-49 -20 -117 -42 -147 -20 -28 -20 -30 -3 -43 11 -7 25 -13 33 -13 17 0 66
-33 108 -72 l31 -29 17 26 c10 14 23 24 29 22 7 -2 26 15 42 39 17 24 53 76
81 116 55 78 90 115 100 105 9 -9 9 -452 0 -712 -8 -239 -15 -280 -49 -271
-14 3 -16 2 -7 -9 13 -15 40 -9 41 9 0 6 4 2 8 -9 6 -15 0 -24 -26 -42 -41
-28 -47 -28 -40 -4 3 15 1 18 -12 14 -13 -5 -12 -3 2 9 18 13 18 14 -2 32 -18
16 -25 17 -47 8 -14 -7 -23 -16 -20 -20 3 -5 -5 -8 -17 -7 -23 2 -57 -21 -57
-38 0 -13 -28 -35 -68 -53 -18 -8 -36 -24 -41 -36 -5 -14 -10 -18 -15 -10 -4
7 -12 9 -18 6 -6 -4 -5 -10 3 -16 10 -6 7 -7 -8 -3 -19 5 -23 2 -23 -18 0 -21
-4 -24 -22 -20 -13 3 -20 2 -16 -2 4 -4 0 -15 -10 -24 -19 -17 -30 -57 -13
-47 6 4 9 -4 8 -21 -2 -27 -1 -28 55 -27 49 0 61 4 81 26 14 15 22 29 19 32
-3 3 3 6 13 6 17 0 17 -1 2 -18 -10 -10 -17 -21 -17 -25 0 -10 62 11 80 28 9
8 26 15 38 15 13 0 22 6 22 16 0 8 5 12 10 9 19 -12 77 42 85 77 4 18 9 27 12
20 8 -21 33 6 33 37 0 14 5 33 10 41 8 12 10 9 10 -12 0 -16 2 -28 5 -28 3 0
26 15 52 34 124 87 319 161 450 169 61 4 100 13 150 35 37 16 95 40 128 53 33
12 86 38 118 56 33 18 63 33 67 33 5 0 15 6 22 13 17 17 157 57 200 57 44 0
65 -16 75 -59 12 -48 -3 -170 -32 -256 -39 -118 -168 -372 -186 -368 -10 3 -8
-19 3 -27 4 -3 -9 -24 -29 -48 -34 -41 -108 -84 -165 -96 -26 -6 -40 -26 -18
-26 6 0 24 -13 42 -30 17 -16 26 -30 20 -30 -11 0 -35 -61 -30 -78 3 -11 -83
-121 -155 -196 -42 -44 -50 -49 -67 -38 -16 10 -23 8 -43 -14 -24 -25 -25 -25
-38 -7 -16 21 -101 64 -133 66 -12 1 -25 7 -31 14 -20 26 -188 85 -268 95 -98
12 -200 -8 -267 -52 -57 -38 -131 -127 -170 -205 -29 -57 -29 -58 -5 -30 l25
30 -10 -34 c-5 -18 -16 -44 -24 -56 -14 -21 -14 -24 1 -29 9 -4 23 0 32 8 10
10 22 12 30 6 8 -4 23 -7 34 -4 11 2 31 -5 45 -16 29 -23 50 -16 27 10 -14 16
-14 21 -1 51 14 32 15 33 21 12 5 -14 15 -23 27 -23 20 0 81 -33 106 -56 19
-19 15 -44 -7 -44 -11 0 -22 4 -26 9 -3 6 -15 8 -27 6 -12 -3 -32 2 -45 10
-12 8 -24 11 -28 6 -19 -32 236 -50 300 -21 35 15 40 17 60 19 24 2 93 79 106
119 6 20 15 42 19 47 4 6 6 22 4 38 -4 43 10 32 39 -32 20 -43 25 -67 21 -91
-5 -20 -3 -35 5 -39 6 -4 16 -32 21 -62 7 -44 6 -56 -6 -66 -10 -7 -12 -13 -4
-18 7 -4 4 -16 -10 -35 -24 -34 -28 -59 -6 -41 16 13 29 1 18 -16 -4 -6 -18
-14 -31 -18 -18 -5 -22 -4 -16 5 6 9 4 11 -4 6 -7 -5 -10 -11 -7 -14 4 -3 -4
-17 -17 -31 -13 -14 -29 -39 -35 -54 -11 -26 -10 -27 7 -17 14 7 20 6 25 -5 3
-8 1 -17 -5 -20 -5 -4 -7 -10 -4 -15 8 -12 -33 -58 -89 -99 -71 -52 -89 -59
-41 -17 22 20 36 36 30 36 -14 0 -96 -76 -89 -82 7 -8 -54 -43 -101 -58 -22
-7 -44 -16 -50 -20 -5 -4 -25 -10 -44 -14 -35 -6 -61 -22 -61 -36 0 -8 60 3
79 14 40 25 -17 -52 -108 -147 -79 -82 -188 -165 -278 -212 -57 -29 -70 -51
-26 -41 26 5 26 5 -4 -11 -23 -12 -33 -24 -33 -40 0 -13 -7 -26 -15 -29 -14
-6 -13 -8 1 -19 10 -7 14 -17 10 -24 -6 -9 -13 -8 -29 6 -18 15 -19 15 -9 1
12 -14 10 -20 -12 -39 -14 -12 -22 -27 -18 -33 3 -6 8 -26 9 -44 1 -19 7 -40
14 -48 8 -10 8 -14 0 -14 -6 0 -11 -4 -11 -10 0 -5 7 -10 15 -10 19 0 19 -5
-2 -29 -9 -11 -21 -17 -27 -14 -6 3 -8 3 -4 -2 4 -4 3 -15 -1 -24 -7 -12 -2
-26 18 -49 l27 -33 27 41 c32 50 34 73 7 100 -24 24 -25 30 -4 30 8 0 13 -4
10 -9 -3 -5 1 -14 9 -21 12 -10 15 -10 15 0 0 10 3 10 14 1 11 -10 23 -1 59
46 24 32 56 64 70 72 14 7 40 34 58 59 18 25 35 40 37 34 2 -6 -6 -25 -17 -41
-12 -16 -21 -32 -21 -35 0 -4 -4 -12 -10 -19 -87 -105 -240 -336 -240 -361 0
-8 -7 -16 -15 -20 -9 -3 -15 -18 -15 -40 0 -28 3 -34 16 -29 14 5 15 1 9 -28
-4 -19 -8 -35 -9 -35 0 -1 -13 -5 -28 -10 -24 -8 -25 -11 -12 -28 11 -16 17
-17 26 -8 9 9 9 12 -3 12 -7 1 -2 7 13 15 16 9 29 27 33 47 7 30 8 31 21 13 7
-10 11 -22 8 -27 -3 -5 -2 -7 3 -6 4 1 19 -3 33 -10 23 -12 23 -11 -4 13 -24
22 -27 29 -15 37 11 8 11 9 -3 5 -9 -3 -19 1 -22 9 -4 12 -1 14 14 9 16 -5 23
0 33 24 7 17 16 29 19 26 3 -3 8 1 11 10 4 10 0 15 -11 16 -10 0 -12 3 -4 6 6
2 12 11 12 19 0 13 12 18 33 15 13 -2 7 17 -10 35 -17 17 -17 18 0 11 9 -3 17
-2 17 4 0 6 5 7 10 4 6 -3 10 -1 10 4 0 6 -7 11 -16 11 -8 0 -12 5 -9 10 4 7
12 7 25 0 15 -8 19 -6 22 13 2 16 9 21 26 20 14 -2 22 3 22 12 0 22 -4 30 -14
27 -5 -2 -6 4 -2 13 3 9 6 18 6 21 0 2 7 1 15 -2 8 -4 15 -15 15 -26 0 -10 4
-17 9 -14 5 3 7 -11 6 -32 l-4 -37 19 22 c16 20 19 21 25 6 3 -10 3 -14 -1
-11 -4 4 -15 -4 -26 -17 -19 -24 -46 -36 -33 -15 8 13 -14 42 -26 34 -5 -3 -9
0 -9 7 0 19 -14 1 -15 -21 -1 -10 2 -17 7 -14 4 3 8 -6 8 -20 0 -14 -5 -25
-11 -23 -7 1 -17 -22 -24 -50 -7 -29 -9 -53 -5 -53 4 0 13 -11 20 -25 12 -23
11 -27 -8 -46 -21 -19 -49 -18 -37 2 4 5 2 9 -3 9 -6 0 -12 -7 -16 -15 -3 -9
0 -15 8 -15 7 0 18 -11 24 -25 11 -23 14 -24 34 -14 13 7 26 17 30 23 4 6 10
7 14 3 4 -4 -2 -14 -14 -23 -25 -17 -21 -31 10 -43 21 -7 21 -8 -2 -29 l-24
-22 22 0 c12 0 22 4 22 9 0 5 9 11 21 14 17 5 20 2 16 -14 -6 -22 -10 -24 52
26 66 53 140 129 134 138 -3 6 -1 7 5 3 8 -4 112 94 271 253 160 162 266 261
278 261 21 0 93 -68 93 -88 0 -7 4 -12 10 -12 21 0 -6 -39 -74 -104 -39 -38
-64 -65 -56 -61 8 5 5 -3 -8 -17 -20 -22 -58 -36 -46 -16 7 11 -3 10 -27 -2
-27 -15 -23 -3 11 31 19 19 27 35 23 46 -5 14 -7 14 -11 2 -2 -7 -17 -27 -32
-44 -36 -39 -41 -56 -22 -77 14 -16 13 -18 -2 -18 -9 0 -15 -4 -12 -8 10 -17
-187 -193 -381 -340 -67 -50 -124 -96 -128 -102 -4 -7 38 -10 125 -10 l132 0
91 69 c120 90 418 352 484 424 28 31 54 57 56 57 7 0 51 -78 66 -117 16 -38
20 -32 -159 -223 -64 -69 -134 -144 -154 -168 l-38 -42 126 0 c103 0 128 3
132 15 4 8 11 15 16 15 6 0 5 -6 -2 -15 -11 -13 51 -15 549 -15 l561 0 0 2400
0 2400 -2400 0 -2400 0 0 -2400z m2670 1500 c0 -5 -2 -10 -4 -10 -3 0 -8 5
-11 10 -3 6 -1 10 4 10 6 0 11 -4 11 -10z m-831 -74 c12 -14 9 -18 -20 -29
-12 -4 -16 0 -14 16 1 12 3 23 4 25 3 7 20 0 30 -12z m161 -60 c0 -3 -4 -8
-10 -11 -5 -3 -10 -1 -10 4 0 6 5 11 10 11 6 0 10 -2 10 -4z m35 -5 c3 -5 1
-12 -5 -16 -5 -3 -10 1 -10 9 0 18 6 21 15 7z m-815 -11 c0 -5 -8 -10 -17 -10
-15 0 -16 2 -3 10 19 12 20 12 20 0z m930 -20 c0 -5 -2 -10 -4 -10 -3 0 -8 5
-11 10 -3 6 -1 10 4 10 6 0 11 -4 11 -10z m1535 -90 c3 -5 -1 -10 -9 -10 -9 0
-16 5 -16 10 0 6 4 10 9 10 6 0 13 -4 16 -10z m-2154 -41 c34 -34 21 -54 -35
-52 l-48 2 18 -22 19 -21 -25 16 c-34 21 -36 43 -6 73 30 30 49 32 77 4z
m1777 -5 c25 -17 30 -54 7 -54 -8 0 -15 -6 -15 -14 0 -15 -5 -15 -52 -1 -35 9
-35 16 -2 54 30 36 32 36 62 15z m-2318 -89 c0 -8 -4 -15 -10 -15 -5 0 -10 7
-10 15 0 8 5 15 10 15 6 0 10 -7 10 -15z m2910 -19 c0 -3 -4 -8 -10 -11 -5 -3
-10 -1 -10 4 0 6 5 11 10 11 6 0 10 -2 10 -4z m-650 -156 c0 -5 -4 -10 -9 -10
-6 0 -13 5 -16 10 -3 6 1 10 9 10 9 0 16 -4 16 -10z m-2765 -200 c3 -5 -1 -10
-9 -10 -8 0 -18 5 -21 10 -3 6 1 10 9 10 8 0 18 -4 21 -10z m2315 -25 c0 -12
-19 -12 -23 0 -4 9 -1 12 9 8 7 -3 14 -7 14 -8z m-80 -55 c0 -5 -5 -10 -11
-10 -5 0 -7 5 -4 10 3 6 8 10 11 10 2 0 4 -4 4 -10z m-55 -67 c-16 -23 -16
-25 -1 -20 9 4 16 2 16 -3 0 -6 -7 -10 -16 -10 -28 0 -54 20 -54 43 0 21 0 21
17 -2 15 -22 17 -22 29 -7 6 9 10 27 7 39 -4 20 -3 20 7 4 9 -14 8 -24 -5 -44z
m-21 32 c-4 -8 -8 -15 -10 -15 -2 0 -4 7 -4 15 0 8 4 15 10 15 5 0 7 -7 4 -15z
m92 -10 c1 -9 -6 -15 -17 -15 -10 0 -19 5 -19 10 0 6 7 10 16 10 9 0 12 5 8
13 -4 6 -3 8 1 4 5 -4 10 -14 11 -22z m-167 -66 c-20 -12 -22 -4 -8 23 12 21
13 21 17 4 2 -10 -2 -22 -9 -27z m209 23 c2 -7 -6 -12 -17 -12 -21 0 -27 11
-14 24 9 9 26 2 31 -12z m-242 -57 c10 -8 14 -15 7 -15 -7 0 -10 -7 -7 -15 4
-10 0 -15 -11 -15 -11 0 -15 5 -12 15 4 8 2 17 -3 20 -12 7 -13 25 -2 25 5 0
17 -7 28 -15z m-51 -5 c3 -5 1 -10 -4 -10 -6 0 -11 5 -11 10 0 6 2 10 4 10 3
0 8 -4 11 -10z m15 -50 c0 -5 -4 -10 -10 -10 -5 0 -10 5 -10 10 0 6 5 10 10
10 6 0 10 -4 10 -10z m1360 -269 c0 -6 -4 -13 -10 -16 -5 -3 -10 1 -10 9 0 9
5 16 10 16 6 0 10 -4 10 -9z m-3240 -184 c60 -31 93 -89 93 -166 1 -69 -28
-138 -50 -120 -12 10 -10 17 13 40 l27 28 -26 10 c-15 6 -27 16 -27 23 0 9 -3
9 -11 1 -12 -12 -49 -6 -49 8 0 5 -5 9 -10 9 -6 0 -4 -15 5 -37 18 -42 15 -54
-5 -19 -11 21 -18 24 -43 19 -26 -5 -29 -4 -22 16 4 13 2 21 -5 21 -12 0 -11
-16 6 -68 6 -22 5 -23 -13 -11 -12 7 -18 19 -16 29 6 23 -14 35 -32 20 -8 -6
-18 -9 -23 -7 -4 3 -14 2 -21 -2 -9 -6 -2 -15 24 -30 30 -17 35 -24 25 -36 -6
-8 -9 -24 -5 -37 l6 -23 -14 24 c-12 20 -15 21 -20 7 -4 -9 -11 -16 -16 -16
-6 0 -8 7 -5 15 4 8 1 15 -5 15 -7 0 -14 -7 -17 -15 -7 -17 -44 -21 -44 -4 0
5 5 7 11 3 7 -4 10 -1 7 7 -3 8 -12 13 -22 11 -14 -2 -16 9 -16 89 0 64 5 101
16 126 19 38 68 80 111 93 42 14 122 3 173 -23z m3705 -1 c37 -19 55 -33 55
-46 0 -10 4 -22 10 -25 12 -8 1 -98 -14 -107 -6 -3 -22 -16 -35 -27 -13 -12
-25 -21 -26 -21 -1 0 -2 15 -1 33 0 17 -3 32 -9 32 -5 0 -9 -13 -7 -28 2 -25
0 -28 -19 -22 -15 5 -19 4 -15 -4 4 -6 1 -11 -8 -11 -8 0 -21 -3 -29 -6 -12
-4 -14 0 -10 18 6 20 4 21 -9 10 -13 -10 -18 -8 -32 13 -9 14 -24 25 -34 25
-16 -1 -16 -1 1 -14 9 -7 17 -16 17 -19 0 -4 -8 -3 -17 0 -16 6 -17 5 -3 -12
26 -34 50 -55 60 -55 15 0 32 -38 20 -45 -14 -9 -30 3 -40 31 -11 27 -29 28
-48 1 -7 -9 -18 -15 -23 -12 -5 4 -9 1 -9 -4 0 -6 -6 -11 -14 -11 -7 0 -19 -7
-26 -15 -10 -12 -10 -15 4 -15 9 0 16 -7 16 -16 0 -13 -3 -14 -13 -5 -8 6 -17
8 -20 4 -4 -3 -7 1 -7 10 0 9 -5 17 -11 17 -5 0 -7 -6 -3 -12 4 -7 4 -10 -1
-6 -5 5 -10 23 -12 40 -5 58 -14 83 -22 69 -6 -10 -10 -9 -14 3 -4 9 -2 16 4
16 6 0 8 9 4 20 -20 63 45 153 147 205 65 32 112 30 193 -9z m-980 -147 c9
-17 14 -33 11 -36 -4 -4 -36 49 -36 62 0 13 11 2 25 -26z m-2865 -59 c0 -5 -7
-10 -16 -10 -8 0 -12 5 -9 10 3 6 10 10 16 10 5 0 9 -4 9 -10z m2900 -19 c0
-18 -14 -20 -26 -3 -19 25 -17 34 6 22 11 -6 20 -14 20 -19z m-447 -22 c-13
-13 -43 -5 -43 10 0 6 7 8 15 5 9 -4 15 -1 15 7 0 10 3 10 12 1 9 -9 9 -15 1
-23z m-2367 5 c17 -14 17 -15 1 -10 -10 3 -23 6 -28 6 -5 0 -9 5 -9 10 0 14
13 12 36 -6z m-15 -43 c-23 -23 -54 -31 -75 -19 -20 11 -21 24 0 32 8 3 12 2
9 -4 -3 -5 6 -3 20 4 15 8 35 12 45 9 17 -5 17 -6 1 -22z m2702 10 c-7 -29
-57 -84 -94 -105 l-34 -19 26 29 c14 16 36 46 49 67 14 25 25 35 30 27 5 -8 9
-7 13 4 9 22 16 20 10 -3z m1059 -23 c-7 -7 -12 -8 -12 -2 0 14 12 26 19 19 2
-3 -1 -11 -7 -17z m-3717 2 c3 -5 1 -10 -4 -10 -6 0 -11 5 -11 10 0 6 2 10 4
10 3 0 8 -4 11 -10z m2163 -20 c-7 -11 -16 -20 -21 -20 -4 0 -3 9 3 20 6 11
15 20 20 20 6 0 5 -9 -2 -20z m1479 -32 c-3 -8 -6 -5 -6 6 -1 11 2 17 5 13 3
-3 4 -12 1 -19z m-3797 2 c0 -5 -2 -10 -4 -10 -3 0 -8 5 -11 10 -3 6 -1 10 4
10 6 0 11 -4 11 -10z m795 0 c3 -6 -1 -7 -9 -4 -18 7 -21 14 -7 14 6 0 13 -4
16 -10z m1746 -29 c-8 -5 -20 -7 -28 -4 -21 8 -15 13 15 13 20 0 23 -3 13 -9z
m-2471 -66 c0 -8 -4 -15 -9 -15 -13 0 -22 16 -14 24 11 11 23 6 23 -9z m815
-264 c-6 -5 -25 10 -25 20 0 5 6 4 14 -3 8 -7 12 -15 11 -17z m-35 -61 c0 -5
-4 -10 -10 -10 -5 0 -10 5 -10 10 0 6 5 10 10 10 6 0 10 -4 10 -10z m-464
-101 c53 -17 75 -47 48 -66 -18 -13 -16 -23 8 -27 18 -2 62 -45 78 -75 10 -20
10 -25 -3 -32 -9 -6 -13 -17 -10 -29 9 -34 -14 -23 -74 35 -31 30 -59 53 -61
50 -2 -2 -22 3 -44 11 -64 22 -128 17 -128 -11 0 -7 11 -12 25 -11 14 0 25 7
25 14 0 17 11 15 40 -9 15 -12 20 -22 14 -25 -7 -3 -10 -14 -7 -24 4 -13 0
-20 -10 -20 -19 0 -31 -30 -17 -44 17 -17 11 -35 -10 -29 -11 3 -20 0 -20 -6
0 -6 -13 -11 -30 -11 -16 0 -30 5 -30 10 0 6 -7 10 -15 10 -17 0 -21 -25 -5
-35 18 -11 79 -15 85 -5 3 6 19 10 36 10 27 0 29 2 29 39 0 22 5 43 10 46 6 3
8 18 5 33 -3 21 -2 19 7 -6 8 -24 8 -42 0 -68 l-10 -34 33 27 c31 27 52 80 31
80 -32 0 -46 4 -41 13 11 18 53 11 60 -10 3 -11 17 -28 31 -39 16 -13 21 -22
13 -26 -6 -4 -16 -2 -22 4 -18 18 -24 13 -31 -23 -6 -31 -10 -34 -79 -55 -53
-15 -86 -19 -124 -15 -37 5 -57 3 -68 -6 -23 -19 -40 1 -25 30 6 12 8 25 4 28
-4 4 -9 1 -11 -5 -6 -18 -28 -16 -47 3 -20 20 -21 61 -1 80 22 22 19 37 -5 24
-25 -13 -36 -55 -22 -83 6 -12 20 -43 32 -69 15 -32 28 -48 47 -53 36 -9 21
-18 -32 -21 -28 -1 -49 4 -56 12 -6 8 -16 14 -22 14 -5 0 -2 -9 8 -20 13 -15
14 -19 4 -15 -8 3 -20 15 -27 26 -8 12 -9 18 -3 15 7 -5 8 -1 4 9 -5 13 -8 14
-15 3 -6 -10 -13 -8 -30 12 -11 14 -25 24 -31 22 -18 -5 0 104 27 157 36 70
85 122 148 156 96 53 214 66 314 34z m3416 -30 c9 -5 26 -9 38 -9 16 0 20 -4
15 -19 -4 -14 0 -21 14 -26 12 -3 26 -3 32 1 13 7 59 -15 59 -29 0 -5 -7 -6
-16 -3 -23 9 -45 -23 -31 -45 14 -22 -10 -82 -30 -75 -7 3 -23 -4 -34 -15 -14
-14 -29 -19 -45 -16 -14 2 -27 0 -30 -4 -9 -15 -68 -10 -93 7 -19 14 -27 14
-46 4 -25 -14 -45 -7 -45 16 0 8 -4 14 -10 14 -5 0 -10 9 -10 21 0 14 5 19 14
16 10 -4 13 -1 9 9 -7 19 24 18 44 -1 22 -23 30 -9 8 15 -18 20 -17 20 8 20
17 0 27 5 27 14 0 12 -7 13 -32 5 -17 -5 -34 -13 -37 -17 -3 -5 -17 -15 -30
-21 -20 -11 -23 -18 -18 -52 4 -31 1 -41 -13 -49 -9 -5 -20 -7 -22 -4 -3 2
-17 0 -32 -5 -19 -8 -25 -7 -23 2 1 7 -6 11 -17 9 -14 -3 -17 1 -12 13 5 14 2
16 -14 12 -16 -4 -20 0 -20 18 0 85 104 182 225 208 28 6 147 -4 167 -14z
m-762 -169 c0 -5 -4 -10 -10 -10 -5 0 -10 5 -10 10 0 6 5 10 10 10 6 0 10 -4
10 -10z m944 -35 c-4 -8 -11 -15 -16 -15 -6 0 -5 6 2 15 7 8 14 15 16 15 2 0
1 -7 -2 -15z m-553 -108 c-9 -9 -11 -8 -6 6 4 10 2 17 -4 17 -6 0 -11 8 -11
17 0 14 3 13 16 -6 13 -17 14 -25 5 -34z m83 14 c3 -5 -5 -8 -18 -7 -13 0 -22
4 -19 9 6 10 31 9 37 -2z m124 -10 c2 -6 10 -11 18 -11 9 0 12 5 8 13 -6 9 -4
9 7 0 21 -20 -19 -67 -61 -71 -27 -3 -32 -1 -26 14 9 22 -10 43 -34 37 -15 -4
-18 -1 -13 16 5 18 11 20 51 17 26 -2 48 -9 50 -15z m317 -1 c-3 -5 -13 -10
-21 -10 -8 0 -12 5 -9 10 3 6 13 10 21 10 8 0 12 -4 9 -10z m-2470 -20 c-3 -5
-12 -10 -18 -10 -7 0 -6 4 3 10 19 12 23 12 15 0z m-1005 -30 c-6 -11 -16 -17
-22 -14 -7 5 -5 12 7 21 25 18 28 17 15 -7z m3443 6 c3 -8 3 -16 0 -19 -9 -10
-33 5 -33 19 0 18 26 18 33 0z m-3545 -31 c2 -5 -5 -12 -15 -16 -25 -9 -196 1
-206 12 -4 5 -5 7 -1 5 3 -2 16 -1 30 3 37 10 189 7 192 -4z m1112 5 c0 -5 -5
-10 -11 -10 -5 0 -7 5 -4 10 3 6 8 10 11 10 2 0 4 -4 4 -10z m-1163 -56 c-3
-3 -12 -4 -19 -1 -8 3 -5 6 6 6 11 1 17 -2 13 -5z m83 -10 c0 -11 -6 -15 -20
-11 -10 3 -21 0 -23 -6 -3 -9 -10 -9 -28 0 l-24 12 28 2 c41 2 45 3 53 12 11
11 14 9 14 -9z m3290 7 c0 -6 -4 -13 -10 -16 -5 -3 -10 1 -10 9 0 9 5 16 10
16 6 0 10 -4 10 -9z m-3480 -11 c0 -5 -12 -10 -27 -9 l-28 1 25 8 c14 4 26 8
28 9 1 1 2 -3 2 -9z m88 -5 c7 -7 1 -11 -29 -18 -22 -6 -28 -3 -32 14 -5 19
-3 21 25 15 18 -3 34 -8 36 -11z m2537 -15 c3 -5 -1 -10 -10 -10 -9 0 -13 5
-10 10 3 6 8 10 10 10 2 0 7 -4 10 -10z m-425 -309 c0 -5 -7 -11 -15 -15 -15
-5 -20 5 -8 17 9 10 23 9 23 -2z m-160 -10 c0 -5 -6 -14 -14 -20 -12 -10 -13
-8 -9 8 5 21 23 30 23 12z m22 -33 c-20 -20 -13 -32 8 -13 22 20 27 9 7 -16
-11 -15 -15 -15 -32 -3 -18 13 -18 14 0 34 10 11 21 18 23 15 3 -3 0 -11 -6
-17z m75 5 c-4 -3 -2 -12 4 -19 7 -8 7 -14 -1 -19 -5 -3 -10 -1 -10 5 0 7 -7
10 -15 6 -13 -4 -14 -2 -5 14 6 11 16 20 22 20 6 0 8 -3 5 -7z m-1777 -33 c0
-5 -2 -10 -4 -10 -3 0 -8 5 -11 10 -3 6 -1 10 4 10 6 0 11 -4 11 -10z m1745
-20 c3 -5 1 -10 -4 -10 -6 0 -11 5 -11 10 0 6 2 10 4 10 3 0 8 -4 11 -10z
m-1115 -18 c0 -13 -12 -22 -22 -16 -10 6 -1 24 13 24 5 0 9 -4 9 -8z m11 -55
c-13 -13 -15 1 -4 30 7 17 8 17 11 -1 2 -10 -1 -23 -7 -29z m1089 27 c0 -8 -5
-12 -10 -9 -6 4 -8 11 -5 16 9 14 15 11 15 -7z m-134 -28 c2 -20 -1 -22 -11
-13 -9 8 -10 16 -3 25 13 16 13 16 14 -12z m-903 -3 c-3 -7 -9 -10 -14 -7 -14
8 -11 21 5 21 8 0 12 -6 9 -14z m1150 -26 c3 -7 -3 -13 -13 -13 -10 0 -16 6
-13 13 3 7 9 13 13 13 4 0 10 -6 13 -13z m-314 -64 c0 -25 -1 -26 -9 -8 -12
27 -12 35 0 35 6 0 10 -12 9 -27z m332 -13 c6 0 8 -4 5 -9 -4 -5 0 -11 6 -14
7 -2 9 -8 5 -13 -12 -12 -37 25 -36 50 1 17 2 18 6 4 2 -10 9 -18 14 -18z
m-2721 6 c0 -3 -4 -8 -10 -11 -5 -3 -10 -1 -10 4 0 6 5 11 10 11 6 0 10 -2 10
-4z m2627 -66 c1 -15 -5 -20 -25 -21 -87 -2 -102 -3 -102 -11 0 -5 -5 -6 -11
-3 -17 11 21 32 47 27 16 -3 24 0 24 10 0 10 11 15 33 16 26 1 33 -3 34 -18z
m31 8 c-2 -6 6 -14 17 -16 24 -5 43 -20 24 -19 -41 1 -53 -9 -74 -64 -4 -9
-16 -22 -28 -28 -13 -7 -14 -9 -4 -7 9 3 17 2 17 -2 0 -4 14 -8 30 -9 36 -3
39 4 8 17 -22 8 -22 9 4 9 36 1 40 -9 17 -39 -12 -17 -21 -21 -26 -14 -5 6
-16 10 -26 8 -9 -1 -15 1 -12 6 8 13 -32 19 -46 6 -23 -20 15 27 44 55 16 16
26 33 22 38 -3 6 -1 11 5 11 6 0 11 10 10 23 -3 31 -1 37 10 37 6 0 9 -5 8
-12z m-318 -27 c-5 -11 -19 -19 -30 -18 -35 2 -24 13 38 36 1 1 -2 -8 -8 -18z
m352 -29 c-7 -2 -12 -13 -12 -25 0 -17 -2 -19 -9 -8 -12 19 6 54 22 44 8 -5 8
-8 -1 -11z m-152 -2 c0 -5 -5 -10 -11 -10 -5 0 -7 5 -4 10 3 6 8 10 11 10 2 0
4 -4 4 -10z m13 -54 c-11 -16 -27 -25 -43 -25 -20 1 -21 2 -6 6 11 3 29 16 39
30 25 32 35 22 10 -11z m22 -75 c10 -17 -15 -23 -31 -7 -14 15 -14 16 5 16 11
0 22 -4 26 -9z m-843 -175 c15 -21 8 -29 -10 -13 -22 20 -42 22 -42 5 0 -6 -2
-9 -5 -6 -3 3 -3 12 0 20 7 17 45 13 57 -6z"/>
<path d="M650 2313 c0 -6 5 -15 11 -19 6 -3 17 -20 25 -38 11 -26 13 -27 14
-9 0 12 -11 35 -25 50 -13 15 -25 23 -25 16z"/>
<path d="M420 2253 c0 -5 5 -15 10 -23 8 -13 10 -12 10 3 0 11 4 15 12 11 7
-4 8 -3 4 4 -8 13 -36 16 -36 5z"/>
<path d="M4190 2274 c0 -8 5 -12 10 -9 6 3 10 10 10 16 0 5 -4 9 -10 9 -5 0
-10 -7 -10 -16z"/>
<path d="M890 1352 c0 -10 22 -32 32 -32 15 0 8 28 -8 34 -21 8 -24 8 -24 -2z"/>
<path d="M582 1324 c-22 -15 -31 -64 -12 -64 5 0 17 12 27 26 14 22 22 25 53
21 27 -3 39 0 47 12 9 14 3 16 -42 18 -33 2 -59 -3 -73 -13z"/>
<path d="M520 1320 c0 -5 7 -7 15 -4 8 4 15 8 15 10 0 2 -7 4 -15 4 -8 0 -15
-4 -15 -10z"/>
<path d="M625 1280 c-4 -6 5 -10 20 -10 15 0 24 4 20 10 -3 6 -12 10 -20 10
-8 0 -17 -4 -20 -10z"/>
<path d="M376 1205 c-3 -10 1 -15 12 -16 35 -1 55 -8 71 -23 14 -15 14 -16 -2
-16 -9 0 -17 -4 -17 -9 0 -18 15 -18 32 0 16 16 15 19 -14 49 -21 23 -33 29
-38 20 -5 -9 -9 -9 -14 -1 -10 15 -23 14 -30 -4z"/>
<path d="M4276 1424 c-16 -11 -17 -16 -6 -29 7 -8 18 -15 24 -14 7 0 6 2 -1 6
-10 3 -10 10 -2 25 14 26 9 30 -15 12z"/>
<path d="M4160 1410 c0 -5 10 -10 23 -10 18 0 19 2 7 10 -19 13 -30 13 -30 0z"/>
<path d="M4109 1357 c6 -8 8 -16 5 -19 -3 -3 9 -8 26 -10 l30 -5 -22 24 c-23
25 -60 34 -39 10z"/>
<path d="M4030 1313 c0 -5 5 -15 10 -23 8 -12 10 -11 10 8 0 12 -4 22 -10 22
-5 0 -10 -3 -10 -7z"/>
<path d="M4132 1296 c10 -7 14 -16 10 -21 -6 -7 38 3 47 11 11 9 -15 24 -42
24 -29 -1 -30 -2 -15 -14z"/>
<path d="M4200 1301 c0 -5 7 -11 14 -14 10 -4 13 -1 9 9 -6 15 -23 19 -23 5z"/>
<path d="M2368 4175 c-29 -24 -38 -40 -38 -64 0 -42 21 -91 53 -120 34 -31 53
-18 21 16 -16 17 -24 37 -23 57 1 24 3 26 6 9 5 -27 18 -29 33 -5 8 14 9 12 6
-10 -3 -16 -1 -28 4 -28 5 0 7 -8 4 -17 -4 -13 0 -11 15 6 12 13 21 31 21 40
0 9 5 22 12 29 9 9 9 15 0 24 -7 7 -12 20 -12 30 0 10 -12 25 -27 35 -16 10
-30 21 -33 24 -3 4 -22 -8 -42 -26z m78 -31 c-3 -9 -6 -22 -6 -29 0 -13 -29
-29 -37 -21 -7 7 30 66 40 66 5 0 6 -7 3 -16z"/>
<path d="M2824 3963 c-21 -27 -43 -53 -50 -58 -28 -25 -125 -163 -105 -151 10
7 16 -6 12 -27 -1 -5 3 -6 8 -2 6 3 15 -3 20 -14 8 -14 8 -20 -1 -23 -7 -3 -9
-12 -4 -24 10 -26 9 -29 -12 -29 -11 0 -25 -5 -33 -10 -8 -6 -26 -17 -41 -24
-14 -7 -39 -25 -55 -40 -17 -15 -44 -27 -64 -29 -19 -1 -56 -7 -82 -13 l-48
-11 -59 51 c-32 28 -62 51 -67 51 -4 0 -1 -6 7 -13 8 -7 31 -31 50 -52 19 -22
25 -31 13 -21 -12 10 -45 29 -72 41 -38 18 -51 20 -54 10 -3 -7 0 -18 6 -25 9
-10 9 -11 -3 -8 -8 3 -23 -2 -33 -10 -13 -12 -20 -13 -29 -4 -9 9 -9 12 0 12
6 0 9 7 5 15 -3 9 -2 15 3 13 5 -2 9 2 9 7 0 6 -3 9 -7 7 -5 -1 -8 5 -8 13 0
9 -6 12 -17 8 -21 -8 -36 -29 -40 -58 -7 -48 -10 -59 -22 -63 -7 -2 -15 5 -18
17 -3 12 -11 21 -18 21 -7 0 -16 6 -18 13 -3 6 -6 -2 -6 -20 -1 -17 4 -35 9
-38 6 -4 10 -12 9 -18 -1 -7 -1 -19 0 -27 1 -12 3 -13 10 -1 7 11 11 9 20 -8
7 -12 9 -27 5 -34 -4 -6 -4 -9 1 -5 4 4 18 -5 30 -21 11 -16 43 -48 70 -70
l50 -41 18 40 c20 41 93 123 135 150 13 9 21 23 20 35 -2 15 2 19 17 17 11 -2
22 -7 25 -12 3 -4 12 -10 20 -13 12 -4 12 -6 -2 -6 -11 -1 -15 -6 -12 -16 4
-8 10 -13 14 -10 5 3 12 0 15 -6 11 -17 12 -113 2 -126 -6 -9 -6 -13 1 -13 8
0 22 20 26 40 1 3 7 14 13 26 10 17 7 28 -12 62 -13 24 -20 40 -15 37 6 -4 10
-2 10 4 0 5 -6 11 -12 14 -7 2 -10 7 -7 11 3 3 15 -3 27 -14 12 -12 28 -17 39
-14 16 5 15 3 -2 -11 -20 -16 -20 -16 0 -33 29 -24 68 -82 56 -82 -6 0 -11 -8
-11 -17 -1 -17 -1 -17 -11 0 -5 9 -15 17 -21 17 -9 0 -9 -3 0 -12 17 -17 15
-28 -4 -21 -15 5 -14 3 0 -26 9 -17 21 -29 26 -26 6 4 10 1 10 -5 0 -6 6 -8
13 -4 9 5 9 4 0 -6 -10 -11 -15 -11 -29 1 -14 11 -18 11 -30 -6 -7 -11 -18
-26 -24 -32 -8 -10 -7 -13 4 -13 8 0 18 5 21 10 3 6 11 10 16 10 6 0 7 -4 4
-10 -9 -15 7 -12 29 5 11 8 23 15 28 15 14 0 9 -41 -9 -71 -17 -28 -43 -40
-43 -19 0 6 7 10 15 10 8 0 15 7 15 15 0 20 -20 19 -36 -2 -15 -20 -19 -47 -5
-39 5 3 14 -1 21 -9 12 -14 16 -13 35 5 18 16 24 18 29 8 3 -7 3 -2 0 11 -5
19 -3 23 9 18 11 -4 14 -2 10 9 -3 7 -9 14 -15 14 -5 0 -8 8 -7 18 1 9 0 24
-4 32 -3 8 -8 29 -10 45 -3 17 -9 39 -12 50 -5 13 -1 11 12 -7 l19 -28 31 33
c41 44 111 104 143 123 14 9 32 30 38 46 12 32 32 30 32 -3 0 -10 5 -19 10
-19 6 0 8 16 6 37 -3 20 -6 101 -7 180 -1 79 -5 183 -10 231 -5 57 -4 91 3 99
6 7 8 13 5 13 -3 0 -23 -21 -43 -47z m-44 -333 c0 -6 -5 -19 -11 -29 -11 -16
-14 -17 -42 -3 -22 11 -26 17 -16 23 8 5 15 4 17 -1 4 -12 33 -14 31 -2 -3 14
1 22 11 22 6 0 10 -5 10 -10z m12 -62 c-7 -7 -12 -8 -12 -2 0 6 3 14 7 17 3 4
9 5 12 2 2 -3 -1 -11 -7 -17z m-675 -31 c0 -9 -4 -17 -8 -17 -4 0 -5 -10 -2
-22 5 -22 5 -23 -13 -4 -14 13 -15 20 -6 23 15 6 16 43 1 43 -5 0 -7 5 -4 10
9 14 32 -10 32 -33z m48 -37 c-10 -11 -20 -18 -23 -15 -3 3 3 14 13 25 10 11
20 18 23 15 3 -3 -3 -14 -13 -25z"/>
<path d="M2420 3911 c0 -13 30 -35 51 -36 14 -1 16 1 8 12 -14 16 -9 16 25 3
35 -13 33 -4 -4 15 -32 16 -80 20 -80 6z"/>
<path d="M2350 3895 c-7 -9 -21 -13 -31 -10 -11 4 -19 2 -19 -4 0 -6 -9 -20
-20 -31 -26 -26 -27 -60 -1 -53 10 2 18 12 17 21 -1 16 79 52 117 52 20 0 23
15 5 27 -24 14 -55 13 -68 -2z"/>
<path d="M2508 3854 c6 -11 19 -27 28 -35 9 -8 23 -29 31 -47 12 -29 12 -37
-2 -64 -21 -42 -19 -55 5 -33 11 10 18 20 16 23 -3 2 4 13 15 25 18 20 18 22
2 46 -17 27 -31 41 -77 81 -25 22 -27 23 -18 4z"/>
<path d="M2375 3850 c-3 -5 -1 -10 4 -10 6 0 11 5 11 10 0 6 -2 10 -4 10 -3 0
-8 -4 -11 -10z"/>
<path d="M2400 3807 c0 -23 23 -31 50 -17 28 15 57 -5 39 -26 -9 -11 -8 -14 6
-14 14 0 16 5 10 27 -8 33 -3 29 -42 36 -20 4 -33 2 -37 -6 -3 -9 -7 -8 -15 3
-9 13 -11 13 -11 -3z"/>
<path d="M2891 3794 c0 -11 3 -14 6 -6 3 7 2 16 -1 19 -3 4 -6 -2 -5 -13z"/>
<path d="M2314 3775 c-18 -14 -18 -14 4 -8 12 3 22 9 22 14 0 12 -3 11 -26 -6z"/>
<path d="M2363 3783 c-7 -2 -13 -12 -13 -21 0 -8 -7 -23 -15 -32 -13 -14 -12
-17 5 -28 11 -7 20 -8 20 -3 0 6 -5 13 -10 16 -6 4 -4 12 5 21 8 9 15 22 15
30 0 9 5 12 12 8 7 -4 8 -3 4 4 -4 7 -8 12 -9 11 -1 0 -8 -3 -14 -6z"/>
<path d="M2261 3728 c-2 -69 19 -107 32 -58 3 11 2 20 -3 20 -4 0 -12 19 -17
43 l-11 42 -1 -47z"/>
<path d="M2500 3720 c0 -5 5 -10 10 -10 6 0 10 5 10 10 0 6 -4 10 -10 10 -5 0
-10 -4 -10 -10z"/>
<path d="M2486 3678 c-18 -25 -16 -31 8 -22 9 3 16 15 16 25 0 25 -5 24 -24
-3z"/>
<path d="M2630 3681 c0 -6 9 -9 19 -8 11 0 17 5 15 9 -7 11 -34 10 -34 -1z"/>
<path d="M2350 3669 c0 -6 9 -13 20 -16 11 -3 20 -10 20 -16 0 -6 3 -8 6 -5 9
10 -16 48 -31 48 -8 0 -15 -5 -15 -11z"/>
<path d="M2470 3620 c-14 -11 -20 -20 -14 -20 14 0 50 27 44 33 -3 3 -16 -3
-30 -13z"/>
<path d="M1920 3540 c0 -5 5 -10 11 -10 5 0 7 5 4 10 -3 6 -8 10 -11 10 -2 0
-4 -4 -4 -10z"/>
<path d="M1966 3467 c3 -10 9 -15 12 -12 3 3 0 11 -7 18 -10 9 -11 8 -5 -6z"/>
<path d="M2383 3425 c-29 -33 -23 -112 9 -112 16 0 23 83 8 92 -5 3 -7 12 -3
20 6 18 2 19 -14 0z"/>
<path d="M1970 3399 c0 -5 5 -7 10 -4 6 3 10 8 10 11 0 2 -4 4 -10 4 -5 0 -10
-5 -10 -11z"/>
<path d="M2002 3328 c7 -19 35 -21 35 -3 0 8 -9 15 -19 15 -11 0 -18 -5 -16
-12z"/>
<path d="M2747 3323 c-4 -3 -7 -11 -7 -17 0 -6 5 -5 12 2 6 6 9 14 7 17 -3 3
-9 2 -12 -2z"/>
<path d="M2275 3286 c11 -8 23 -12 27 -10 16 10 7 20 -19 22 -26 2 -26 1 -8
-12z"/>
<path d="M2793 3278 c8 -22 -10 -33 -29 -17 -20 17 -30 4 -11 -16 19 -19 19
-19 46 4 20 17 20 19 4 32 -15 12 -16 12 -10 -3z"/>
<path d="M2857 3283 c-4 -3 -7 -11 -7 -17 0 -6 5 -5 12 2 6 6 9 14 7 17 -3 3
-9 2 -12 -2z"/>
<path d="M2251 3271 c3 -7 8 -12 12 -12 11 1 44 -33 40 -41 -4 -8 -44 11 -54
26 -4 4 -10 3 -13 -3 -4 -6 -3 -11 3 -11 6 0 8 -7 5 -15 -4 -8 -1 -15 5 -15 6
0 11 5 11 10 0 7 8 6 23 -1 12 -7 23 -12 25 -11 11 8 23 -1 18 -13 -4 -10 1
-15 14 -15 23 0 26 15 7 27 -7 4 -18 21 -25 37 -13 29 -13 29 10 14 13 -9 27
-29 32 -46 4 -17 16 -32 26 -35 14 -4 17 2 15 33 -1 21 -9 48 -18 60 -14 21
-16 21 -26 3 -6 -10 -11 -13 -11 -7 0 6 -15 11 -32 11 -18 0 -41 4 -52 8 -13
6 -17 4 -15 -4z"/>
<path d="M2501 3266 c-1 -13 -6 -17 -21 -13 -13 3 -20 0 -20 -9 0 -15 15 -17
41 -6 12 5 14 13 8 27 -7 18 -8 19 -8 1z"/>
<path d="M3896 3238 c-14 -18 -23 -34 -20 -37 2 -2 5 -2 7 0 1 2 12 19 25 37
29 41 21 42 -12 0z"/>
<path d="M3980 3240 c0 -5 -6 -9 -12 -7 -7 1 -12 -4 -10 -10 1 -7 -5 -13 -13
-13 -8 0 -19 -9 -25 -19 -15 -28 -12 -35 7 -20 10 8 14 9 10 2 -11 -18 10 -25
54 -18 29 5 39 11 35 21 -5 13 4 18 29 15 6 0 11 8 11 19 0 18 -2 18 -18 3
-10 -9 -18 -12 -18 -6 0 5 -10 9 -22 9 -17 -1 -22 4 -20 17 2 9 0 17 -3 17 -3
0 -5 -4 -5 -10z"/>
<path d="M2010 3210 c0 -5 5 -10 10 -10 6 0 10 5 10 10 0 6 -4 10 -10 10 -5 0
-10 -4 -10 -10z"/>
<path d="M2455 3210 c3 -5 11 -10 16 -10 6 0 7 5 4 10 -3 6 -11 10 -16 10 -6
0 -7 -4 -4 -10z"/>
<path d="M2770 3203 c0 -10 4 -14 8 -8 4 6 11 13 16 18 5 4 2 7 -7 7 -10 0
-17 -8 -17 -17z"/>
<path d="M2718 3189 c17 -18 15 -25 -8 -25 -11 0 -20 5 -20 11 0 5 -5 3 -10
-5 -8 -13 -10 -12 -10 3 0 10 -8 17 -20 17 -11 0 -20 -6 -20 -13 0 -19 20 -36
36 -30 9 3 12 -2 9 -16 -5 -27 6 -27 23 -1 7 11 18 20 26 20 24 0 27 29 3 41
-18 9 -20 9 -9 -2z"/>
<path d="M2800 3186 c0 -9 30 -14 35 -6 4 6 -3 10 -14 10 -12 0 -21 -2 -21 -4z"/>
<path d="M3739 3173 c-13 -16 -12 -17 4 -4 16 13 21 21 13 21 -2 0 -10 -8 -17
-17z"/>
<path d="M3819 3170 c-13 -10 -19 -19 -13 -20 7 0 22 9 35 20 13 10 19 19 13
20 -7 0 -22 -9 -35 -20z"/>
<path d="M4084 3175 c3 -9 6 -20 6 -24 0 -4 7 -8 15 -8 23 0 14 41 -9 45 -14
3 -17 0 -12 -13z"/>
<path d="M2446 3172 c-11 -18 2 -32 32 -33 24 0 25 -1 7 -9 -15 -7 -16 -9 -4
-9 9 -1 22 6 29 14 10 13 9 15 -10 15 -13 0 -28 7 -35 17 -8 11 -14 13 -19 5z"/>
<path d="M2288 3153 c6 -2 12 -11 12 -19 0 -8 5 -14 10 -14 16 0 11 27 -6 34
-9 3 -19 6 -22 5 -4 0 -1 -3 6 -6z"/>
<path d="M1963 3136 c12 -17 8 -36 -8 -36 -20 0 -19 -13 5 -41 18 -23 19 -23
20 -4 l1 20 8 -20 c10 -24 -7 -39 -26 -23 -9 7 -13 7 -13 -1 0 -11 13 -15 38
-12 6 1 12 -4 12 -12 0 -7 6 -19 13 -25 6 -7 12 -18 12 -25 0 -6 10 -16 22
-23 13 -6 32 -19 43 -29 11 -10 20 -13 20 -7 0 7 5 12 11 12 5 0 7 -4 4 -10
-6 -9 8 -14 28 -11 4 0 7 -3 7 -8 0 -5 15 -13 33 -16 17 -4 38 -12 44 -17 7
-6 24 -7 38 -4 14 4 25 2 25 -4 0 -5 12 -10 26 -10 26 0 26 2 22 50 -3 27 -1
47 4 44 4 -3 8 -1 8 5 0 5 3 17 7 27 4 12 2 15 -8 12 -8 -3 -23 2 -33 11 -11
9 -16 10 -12 4 12 -21 16 -54 5 -48 -5 4 -7 11 -4 16 4 5 0 9 -9 9 -8 0 -17 6
-19 13 -4 9 -8 8 -16 -3 -9 -12 -11 -11 -11 9 0 17 4 22 16 17 22 -8 47 24 32
41 -14 17 -38 17 -38 0 0 -7 -10 -21 -22 -31 -20 -17 -24 -18 -47 -5 -19 11
-25 22 -24 41 1 20 -2 26 -13 21 -12 -4 -12 -8 -2 -21 11 -13 9 -14 -17 -8
-16 4 -39 16 -50 25 -21 19 -69 35 -59 20 12 -20 -7 -7 -43 29 -21 21 -35 33
-30 28z m162 -135 c-3 -3 -11 1 -16 9 -8 12 -10 10 -6 -7 3 -13 1 -23 -4 -23
-10 0 -12 33 -2 43 3 4 12 2 20 -5 7 -6 11 -13 8 -17z m41 -23 c-3 -22 -22
-29 -20 -8 3 25 5 30 14 30 5 0 8 -10 6 -22z"/>
<path d="M2156 3130 c7 -28 12 -35 18 -29 2 2 -2 15 -10 29 l-15 25 7 -25z"/>
<path d="M2382 3141 c-11 -7 -11 -9 0 -13 18 -7 39 2 32 13 -6 11 -15 11 -32
0z"/>
<path d="M2115 3130 c3 -5 8 -10 11 -10 2 0 4 5 4 10 0 6 -5 10 -11 10 -5 0
-7 -4 -4 -10z"/>
<path d="M2200 3126 c0 -9 5 -16 10 -16 6 0 10 4 10 9 0 6 -4 13 -10 16 -5 3
-10 -1 -10 -9z"/>
<path d="M3765 3106 c-42 -44 -93 -78 -105 -71 -13 8 -111 -55 -104 -67 3 -4
12 -1 20 7 17 17 44 20 44 5 0 -5 -9 -14 -20 -20 -28 -15 -25 -33 5 -28 14 3
25 1 25 -3 0 -5 5 -9 11 -9 6 0 8 10 5 23 -3 12 -3 16 0 9 3 -6 10 -10 14 -7
5 3 14 -4 20 -15 6 -11 17 -20 26 -20 11 0 12 4 5 19 -11 19 -4 34 10 25 13
-8 11 -48 -3 -63 -11 -11 -10 -12 2 -5 8 4 27 7 42 5 14 -1 29 2 33 8 3 6 21
11 38 11 18 1 46 8 62 16 17 8 22 12 13 10 -51 -14 -88 -17 -88 -8 0 6 8 13
18 16 9 3 0 3 -20 0 -20 -2 -39 -1 -42 4 -9 15 9 27 42 29 43 2 45 4 29 42 -7
17 -16 29 -19 26 -3 -3 -16 -2 -29 3 l-23 9 28 27 c16 14 25 26 19 26 -5 0
-14 -5 -21 -12 -9 -9 -12 -9 -12 3 0 8 5 20 12 27 7 7 8 12 3 11 -6 -1 -23
-15 -40 -33z m25 -20 c0 -3 -4 -8 -10 -11 -5 -3 -10 -1 -10 4 0 6 5 11 10 11
6 0 10 -2 10 -4z m-25 -45 c-3 -6 3 -14 12 -20 25 -14 10 -14 -22 1 -18 8 -22
14 -13 20 18 11 30 10 23 -1z"/>
<path d="M2443 3103 c-15 -6 -17 -63 -3 -63 6 0 13 6 16 14 9 23 0 53 -13 49z"/>
<path d="M2195 3090 c3 -5 11 -10 16 -10 6 0 7 5 4 10 -3 6 -11 10 -16 10 -6
0 -7 -4 -4 -10z"/>
<path d="M2375 3080 c3 -5 8 -10 11 -10 2 0 4 5 4 10 0 6 -5 10 -11 10 -5 0
-7 -4 -4 -10z"/>
<path d="M2247 3069 c7 -7 15 -10 18 -7 3 3 -2 9 -12 12 -14 6 -15 5 -6 -5z"/>
<path d="M2485 3060 c-3 -5 -1 -10 4 -10 6 0 11 5 11 10 0 6 -2 10 -4 10 -3 0
-8 -4 -11 -10z"/>
<path d="M2580 3066 c0 -9 30 -14 35 -6 4 6 -3 10 -14 10 -12 0 -21 -2 -21 -4z"/>
<path d="M2341 3028 c-3 -40 50 -57 63 -21 5 13 1 14 -23 10 -23 -5 -31 -2
-34 11 -4 16 -5 16 -6 0z"/>
<path d="M2508 3032 c-20 -4 -34 -44 -23 -62 5 -9 10 -9 19 0 8 9 8 14 -2 17
-9 4 -6 11 9 24 24 21 23 27 -3 21z"/>
<path d="M2425 2990 c-4 -6 3 -10 14 -10 25 0 27 6 6 13 -8 4 -17 2 -20 -3z"/>
<path d="M3438 2907 c-7 -7 -38 -13 -68 -13 -31 -1 -70 -9 -87 -18 -18 -9 -39
-16 -48 -16 -8 0 -15 -4 -15 -10 0 -5 -7 -10 -16 -10 -8 0 -13 -4 -10 -9 3 -5
14 -7 24 -5 9 3 32 -7 51 -21 19 -14 42 -25 51 -25 20 0 53 -34 43 -43 -3 -4
1 -7 10 -7 9 0 21 9 28 21 l11 21 22 -21 c27 -25 45 -28 24 -3 -9 9 -21 27
-27 40 -12 22 -11 23 7 13 20 -11 20 -10 1 28 -10 22 -27 42 -36 44 -10 3 -4
5 13 6 23 1 33 7 37 21 6 23 3 25 -15 7z"/>
<path d="M2366 2873 c9 -37 13 -43 27 -42 9 0 9 2 0 6 -7 2 -13 15 -13 28 0
13 -5 27 -10 30 -7 4 -8 -3 -4 -22z"/>
<path d="M2390 2882 c0 -11 10 -27 23 -38 l22 -19 -18 22 c-12 14 -15 23 -7
28 11 7 4 25 -11 25 -5 0 -9 -8 -9 -18z"/>
<path d="M3677 2863 c-4 -3 -7 -11 -7 -17 0 -6 5 -5 12 2 6 6 9 14 7 17 -3 3
-9 2 -12 -2z"/>
<path d="M3721 2853 c-5 -10 -13 -17 -18 -15 -4 2 -9 -2 -11 -8 -6 -17 38 -2
63 21 19 19 19 19 -2 19 -12 0 -26 -8 -32 -17z"/>
<path d="M1370 2770 c-9 -6 -9 -9 0 -12 9 -3 8 -8 -4 -21 -9 -9 -24 -13 -33
-10 -11 4 -14 3 -9 -5 12 -20 40 -14 76 16 l34 29 -26 5 c-15 3 -32 2 -38 -2z"/>
<path d="M1450 2759 c0 -5 5 -7 10 -4 6 3 10 8 10 11 0 2 -4 4 -10 4 -5 0 -10
-5 -10 -11z"/>
<path d="M3486 2745 c4 -8 10 -12 15 -9 11 6 2 24 -11 24 -5 0 -7 -7 -4 -15z"/>
<path d="M3417 2733 c-4 -6 10 -24 33 -41 38 -28 39 -30 18 -35 -12 -4 -28 -1
-35 4 -9 8 -11 5 -8 -12 6 -29 25 -49 25 -26 0 25 13 21 35 -13 14 -21 25 -28
38 -24 15 5 18 2 13 -13 -5 -17 -1 -20 26 -21 31 -1 31 0 12 11 -12 7 -20 20
-18 30 1 10 -11 32 -28 48 -17 16 -27 29 -22 29 5 0 -4 11 -20 25 -16 14 -35
25 -42 25 -7 0 -14 5 -16 12 -3 9 -6 9 -11 1z"/>
<path d="M3335 2618 c11 -6 26 -18 33 -26 6 -9 12 -11 12 -5 0 17 -29 43 -48
43 -14 -1 -14 -3 3 -12z"/>
<path d="M3390 2600 c0 -8 5 -22 10 -30 9 -13 10 -13 10 0 0 8 -5 22 -10 30
-9 13 -10 13 -10 0z"/>
<path d="M3590 2595 c0 -8 4 -15 10 -15 5 0 7 7 4 15 -4 8 -8 15 -10 15 -2 0
-4 -7 -4 -15z"/>
<path d="M3635 2580 c3 -5 8 -10 11 -10 2 0 4 5 4 10 0 6 -5 10 -11 10 -5 0
-7 -4 -4 -10z"/>
<path d="M3484 2558 c-4 -7 -4 -10 1 -6 5 5 14 -1 21 -11 7 -10 23 -21 34 -24
19 -5 19 -4 -3 23 -24 31 -42 37 -53 18z"/>
<path d="M3377 2538 c18 -20 26 -19 18 4 -3 8 -12 15 -20 15 -13 0 -12 -4 2
-19z"/>
<path d="M3647 2514 c-15 -12 -22 -26 -17 -29 6 -3 10 -1 10 5 0 6 4 9 9 5 5
-3 12 4 16 14 4 12 12 18 21 14 7 -3 14 -3 14 0 0 16 -30 11 -53 -9z"/>
<path d="M3695 2500 c-10 -11 -16 -22 -13 -25 3 -3 13 4 23 15 10 11 16 22 13
25 -3 3 -13 -4 -23 -15z"/>
<path d="M1728 2379 c-54 -12 -161 -63 -177 -83 -12 -14 -12 -16 3 -10 14 5
13 1 -5 -30 -11 -20 -17 -36 -12 -36 4 0 17 -19 28 -41 11 -23 41 -64 68 -93
42 -44 50 -48 56 -33 6 17 8 16 20 -6 7 -13 29 -32 48 -41 l35 -17 -33 36
c-31 33 -59 81 -41 73 48 -24 62 -32 62 -40 0 -4 11 -8 24 -8 14 0 28 -4 31
-10 3 -5 17 -10 31 -10 15 0 24 -6 24 -15 0 -8 5 -15 10 -15 5 0 9 5 7 11 -1
6 22 18 52 27 44 13 57 13 74 2 15 -9 22 -10 25 -1 5 14 32 15 32 1 0 -15 46
-12 62 4 8 7 24 17 37 21 20 6 23 12 18 44 -2 21 -21 60 -41 88 -19 27 -33 52
-30 55 11 12 -111 108 -155 122 -51 16 -196 19 -253 5z m200 -151 c2 -15 -1
-35 -6 -44 -8 -15 -11 -14 -27 9 -10 16 -14 34 -10 47 9 30 39 21 43 -12z"/>
<path d="M1820 1982 c0 -13 114 -22 148 -12 24 7 22 8 -13 7 -22 -1 -61 2 -87
6 -29 5 -48 4 -48 -1z"/>
<path d="M3326 1964 c-5 -14 -4 -15 9 -4 17 14 19 20 6 20 -5 0 -12 -7 -15
-16z"/>
<path d="M3240 1807 c-29 -15 -164 -187 -146 -187 2 0 34 36 70 80 37 44 71
80 77 80 6 0 7 -5 3 -11 -3 -6 5 -3 20 6 27 18 35 45 14 45 -7 0 -24 -6 -38
-13z"/>
<path d="M3080 1800 c-9 -6 -10 -10 -3 -10 6 0 15 5 18 10 8 12 4 12 -15 0z"/>
<path d="M3058 1672 c-22 -37 -87 -101 -121 -119 -49 -25 -20 -28 33 -3 42 20
54 32 81 83 31 60 36 89 7 39z"/>
<path d="M3006 1655 c-11 -8 -15 -15 -9 -15 6 0 16 7 23 15 16 19 11 19 -14 0z"/>
<path d="M2493 1603 c-10 -16 -13 -16 -23 -3 -9 13 -13 12 -29 -9 -10 -13 -23
-21 -29 -17 -6 3 -13 2 -17 -4 -8 -14 -45 -12 -71 3 -61 35 -66 36 -30 3 21
-19 51 -38 66 -41 16 -3 34 -13 41 -21 6 -8 18 -14 25 -14 8 0 14 -11 14 -27
l1 -28 17 32 c10 19 37 42 67 58 28 15 64 40 80 57 l30 30 -38 -5 c-22 -3 -54
-18 -72 -32 -40 -30 -53 -33 -25 -5 11 11 25 20 30 20 6 0 10 5 10 10 0 17
-34 11 -47 -7z"/>
<path d="M3195 1580 c-3 -5 -1 -10 4 -10 6 0 11 5 11 10 0 6 -2 10 -4 10 -3 0
-8 -4 -11 -10z"/>
<path d="M3004 1524 c-18 -14 -18 -15 4 -4 12 6 22 13 22 15 0 8 -5 6 -26 -11z"/>
<path d="M2392 1358 c-7 -7 -34 -13 -60 -14 -117 -5 -118 -5 -97 -13 11 -5 35
-6 54 -3 22 3 32 2 28 -5 -10 -16 32 -21 103 -12 35 4 94 5 132 2 76 -6 96 11
26 22 -24 4 -53 13 -65 21 -26 16 -37 18 -28 4 3 -6 -5 -10 -19 -10 -13 0 -32
-3 -42 -7 -13 -5 -16 -3 -11 10 7 20 -4 22 -21 5z"/>
<path d="M1891 936 c-9 -11 -6 -20 15 -45 24 -28 24 -32 9 -47 -9 -9 -13 -24
-10 -34 4 -12 0 -20 -12 -23 -17 -4 -17 -5 0 -6 11 -1 15 -6 11 -13 -5 -7 -3
-8 6 -3 10 6 12 4 7 -8 -8 -20 11 -33 26 -18 8 8 8 11 -1 11 -6 0 -9 7 -6 15
4 8 13 15 21 15 8 0 11 5 7 13 -4 7 -3 9 2 4 5 -5 9 -13 9 -19 0 -6 7 -14 15
-18 8 -4 25 -12 37 -18 28 -15 36 -15 27 -1 -3 6 0 16 7 21 10 6 7 7 -10 3
-20 -6 -23 -4 -19 13 4 13 -6 32 -29 58 -19 22 -50 56 -68 77 -27 31 -34 35
-44 23z m63 -121 c-8 -26 -25 -47 -32 -40 -7 7 -11 48 -6 57 3 4 13 6 24 5 15
-1 19 -6 14 -22z m43 -5 c-1 -12 -5 -16 -10 -11 -5 5 -6 14 -3 20 11 16 15 13
13 -9z"/>
<path d="M1813 835 c-3 -9 -3 -18 -1 -21 3 -3 8 4 11 16 6 23 -1 27 -10 5z"/>
<path d="M1845 770 c-10 -12 -25 -18 -32 -16 -8 3 -13 -2 -13 -13 0 -30 12
-32 35 -6 13 13 25 21 28 18 3 -3 5 4 4 16 -2 25 0 25 -22 1z"/>
<path d="M2075 731 c-3 -12 -11 -18 -17 -15 -5 4 -2 -5 7 -20 21 -31 29 -33
20 -5 -5 14 -2 25 6 30 10 6 11 11 2 20 -8 8 -13 6 -18 -10z"/>
<path d="M3526 714 c-4 -10 -1 -14 6 -12 15 5 23 28 10 28 -5 0 -13 -7 -16
-16z"/>
<path d="M1977 706 c-13 -10 -15 -15 -5 -19 27 -9 0 -16 -30 -8 -24 7 -30 6
-25 -4 3 -10 -1 -13 -16 -10 -11 2 -23 0 -26 -6 -4 -5 0 -9 8 -9 8 0 17 -6 20
-14 4 -9 17 -14 34 -12 32 4 46 -10 33 -34 -6 -12 -2 -19 19 -28 15 -7 33 -24
40 -39 10 -22 14 -24 22 -12 7 11 9 8 9 -10 0 -23 1 -24 14 -6 7 10 11 27 8
37 -2 10 1 18 7 18 7 0 9 -5 6 -10 -8 -13 22 -43 35 -35 6 3 13 -2 17 -12 3
-10 13 -26 22 -36 13 -16 13 -20 1 -29 -12 -8 -11 -9 4 -4 10 4 25 1 33 -5 18
-16 27 -5 14 18 -7 12 -10 14 -11 4 0 -14 -15 -6 -15 8 0 5 -16 31 -35 60 -25
37 -41 51 -59 51 -17 0 -22 4 -17 16 4 9 2 13 -5 8 -6 -4 -16 0 -21 7 -8 11
-9 10 -4 -3 7 -22 -11 -33 -29 -18 -8 6 -20 8 -26 4 -8 -5 -11 -1 -7 13 3 11
1 27 -3 36 -7 12 -5 14 11 10 11 -3 20 -10 20 -16 0 -8 3 -8 11 0 6 6 17 9 23
7 7 -3 12 4 12 16 0 13 -4 16 -10 10 -13 -13 -29 -13 -21 -1 3 5 1 12 -4 15
-5 4 -12 2 -16 -4 -12 -20 -26 2 -20 31 7 33 7 33 -18 15z"/>
<path d="M1770 702 c0 -7 1 -14 3 -16 1 -2 -6 -12 -15 -23 -10 -11 -14 -24 -9
-31 5 -8 12 1 21 28 7 22 10 43 7 47 -4 3 -7 1 -7 -5z"/>
<path d="M2033 695 c0 -8 7 -15 15 -15 12 0 12 3 2 15 -7 8 -13 15 -15 15 -1
0 -2 -7 -2 -15z"/>
<path d="M1700 686 c0 -15 24 -28 34 -19 13 14 5 33 -14 33 -11 0 -20 -6 -20
-14z"/>
<path d="M1840 680 c0 -6 -6 -8 -12 -4 -7 4 -9 3 -5 -1 10 -12 37 -15 37 -5 0
5 -4 12 -10 15 -5 3 -10 1 -10 -5z"/>
<path d="M2150 673 c0 -14 39 -57 46 -51 3 3 -6 18 -20 33 -15 16 -26 23 -26
18z"/>
<path d="M3485 660 c3 -5 8 -10 11 -10 2 0 4 5 4 10 0 6 -5 10 -11 10 -5 0 -7
-4 -4 -10z"/>
<path d="M3441 636 c-12 -13 -18 -26 -14 -29 5 -3 17 7 27 24 21 35 17 37 -13
5z"/>
<path d="M1350 632 c0 -12 11 -29 25 -38 14 -9 25 -23 25 -30 0 -8 7 -14 15
-14 20 0 9 21 -34 69 -28 31 -31 32 -31 13z"/>
<path d="M2117 603 c6 -15 34 -14 40 2 1 6 -8 11 -21 11 -18 1 -23 -2 -19 -13z"/>
<path d="M2210 590 c0 -20 -2 -22 -10 -10 -7 10 -10 11 -10 2 0 -7 11 -18 25
-24 25 -11 42 -44 30 -56 -3 -4 -11 0 -16 8 -9 12 -10 12 -5 -3 3 -10 6 -25 6
-33 0 -7 6 -11 14 -8 22 8 28 -67 7 -84 -15 -12 -15 -14 2 -23 23 -13 61 -95
51 -110 -5 -8 -3 -9 6 -4 9 6 12 4 8 -6 -6 -17 48 -64 57 -49 3 6 -1 17 -9 26
-9 8 -16 22 -16 30 0 8 -9 23 -20 34 -11 11 -20 25 -20 32 0 14 54 -40 63 -62
3 -10 6 -7 6 9 1 16 5 21 16 17 8 -3 15 -1 15 3 0 14 -28 21 -33 8 -2 -7 -8
-8 -13 -4 -4 4 -3 21 3 37 10 27 9 30 -9 30 -19 0 -19 1 3 19 l23 18 -23 29
c-12 16 -47 63 -78 104 -73 98 -73 98 -73 70z m98 -239 c3 -8 -1 -12 -9 -9 -7
2 -15 10 -17 17 -3 8 1 12 9 9 7 -2 15 -10 17 -17z"/>
<path d="M1910 589 c0 -5 5 -7 10 -4 6 3 10 8 10 11 0 2 -4 4 -10 4 -5 0 -10
-5 -10 -11z"/>
<path d="M1842 553 c2 -11 14 -19 28 -20 l25 -3 -23 10 c-13 5 -20 14 -17 20
3 5 1 10 -5 10 -6 0 -10 -8 -8 -17z"/>
<path d="M2155 560 c3 -5 8 -10 11 -10 2 0 4 5 4 10 0 6 -5 10 -11 10 -5 0 -7
-4 -4 -10z"/>
<path d="M1940 540 c0 -4 7 -13 15 -20 8 -7 15 -17 15 -23 0 -6 -7 -1 -16 11
-17 24 -34 29 -34 9 0 -14 -38 -17 -57 -4 -9 5 -13 3 -13 -7 0 -9 5 -16 11
-16 6 0 7 -6 2 -12 -4 -8 2 -7 17 3 32 20 76 19 73 -1 -3 -17 33 -68 41 -59 3
3 -4 16 -15 28 -14 15 -18 26 -11 33 12 12 62 -39 62 -64 0 -10 6 -18 13 -18
8 0 28 -16 46 -36 18 -19 35 -33 39 -30 6 7 -69 82 -80 79 -4 -2 -5 6 -3 17 2
11 -2 20 -8 20 -7 0 -13 11 -13 24 -1 14 -10 33 -20 44 -20 20 -64 36 -64 22z"/>
<path d="M1446 517 c3 -10 9 -15 12 -12 3 3 0 11 -7 18 -10 9 -11 8 -5 -6z"/>
<path d="M1357 473 c-7 -7 11 -33 23 -33 4 0 11 7 14 16 3 8 2 12 -4 9 -6 -3
-10 -1 -10 4 0 12 -13 15 -23 4z"/>
<path d="M1440 429 c0 -5 5 -7 10 -4 6 3 10 8 10 11 0 2 -4 4 -10 4 -5 0 -10
-5 -10 -11z"/>
<path d="M2114 408 c-9 -15 26 -47 44 -41 9 4 13 2 9 -4 -4 -6 0 -16 8 -23 14
-11 19 -7 16 13 -2 12 7 8 35 -18 15 -14 29 -23 32 -20 9 9 -49 63 -75 69 -13
4 -21 10 -19 15 3 5 -6 11 -19 14 -14 2 -28 0 -31 -5z"/>
<path d="M3236 404 c-5 -14 -4 -15 9 -4 17 14 19 20 6 20 -5 0 -12 -7 -15 -16z"/>
<path d="M1437 387 c-3 -9 -2 -19 4 -23 15 -9 18 -2 9 20 -6 17 -7 18 -13 3z"/>
<path d="M1941 371 c-22 -14 3 -39 36 -35 15 1 33 -2 40 -8 19 -16 27 -3 9 15
-8 8 -12 18 -8 22 4 5 2 5 -5 1 -6 -3 -14 -2 -18 4 -8 12 -35 13 -54 1z"/>
<path d="M1470 361 c0 -6 4 -13 10 -16 6 -3 7 1 4 9 -7 18 -14 21 -14 7z"/>
<path d="M1910 343 c13 -18 26 -30 29 -28 3 3 -8 18 -23 33 l-29 27 23 -32z"/>
<path d="M2580 360 c0 -5 5 -10 11 -10 5 0 7 5 4 10 -3 6 -8 10 -11 10 -2 0
-4 -4 -4 -10z"/>
<path d="M2062 332 c-13 -4 -17 -23 -4 -21 24 4 40 -4 50 -23 7 -16 11 -18 11
-7 1 19 -41 57 -57 51z"/>
<path d="M2138 329 c-3 -9 -2 -22 2 -30 13 -19 18 -8 10 21 -4 19 -7 21 -12 9z"/>
<path d="M2555 320 c-17 -19 -17 -20 1 -20 10 0 26 5 34 11 12 9 12 10 -4 5
-13 -5 -17 -2 -12 9 7 20 3 19 -19 -5z"/>
<path d="M2180 297 c0 -2 9 -14 20 -27 16 -18 20 -19 20 -7 0 9 -9 21 -20 27
-11 6 -20 9 -20 7z"/>
<path d="M2160 265 c0 -8 4 -15 10 -15 5 0 7 7 4 15 -4 8 -8 15 -10 15 -2 0
-4 -7 -4 -15z"/>
<path d="M2110 230 c0 -5 5 -10 10 -10 6 0 10 5 10 10 0 6 -4 10 -10 10 -5 0
-10 -4 -10 -10z"/>
<path d="M2225 222 c-7 -20 -8 -19 23 -17 38 3 42 4 42 14 0 16 -59 19 -65 3z"/>
<path d="M2570 225 c0 -10 -10 -15 -27 -15 -16 0 -35 -5 -43 -10 -13 -9 -13
-11 0 -20 13 -8 13 -10 -2 -10 -10 0 -15 -5 -12 -14 3 -7 -6 -20 -20 -30 -16
-10 -23 -22 -19 -31 5 -14 8 -14 30 1 16 10 28 12 32 6 4 -7 12 -6 24 3 16 11
16 13 1 19 -9 3 -20 4 -25 0 -5 -3 -9 -1 -9 3 0 16 24 33 45 33 16 0 17 -2 5
-10 -8 -5 -11 -13 -6 -17 4 -4 14 1 22 12 15 19 15 18 8 -9 -6 -23 -4 -27 7
-20 8 5 20 9 27 10 22 4 64 35 56 42 -3 4 -9 1 -11 -5 -3 -7 -9 -13 -14 -13
-6 0 -6 8 1 19 7 13 7 22 0 26 -5 3 -10 -2 -10 -11 0 -16 -1 -16 -20 1 -18 16
-24 14 -22 -6 1 -3 -12 -3 -29 -1 -16 2 -29 9 -29 14 0 6 6 8 13 5 7 -2 23 3
35 13 18 15 19 19 7 24 -9 3 -15 0 -15 -9z"/>
<path d="M2171 178 c0 -28 2 -30 9 -13 12 28 12 45 0 45 -5 0 -10 -15 -9 -32z"/>
<path d="M1077 187 c-3 -8 1 -14 9 -14 16 0 19 13 5 21 -5 3 -11 0 -14 -7z"/>
<path d="M2111 190 c0 -8 14 -26 32 -39 l32 -25 -25 30 c-14 16 -28 33 -32 39
-5 5 -8 3 -7 -5z"/>
<path d="M2420 181 c-7 -11 -17 -18 -22 -15 -4 3 -8 -33 -8 -80 0 -77 2 -86
18 -86 17 0 19 9 18 86 -2 82 -1 86 24 99 22 13 23 14 5 15 -11 0 -27 -9 -35
-19z"/>
<path d="M1786 181 c-4 -5 3 -12 14 -16 11 -4 18 -11 15 -16 -4 -5 1 -9 10 -9
10 0 14 -5 9 -12 -5 -10 -4 -10 6 -1 8 7 12 14 9 15 -2 2 -16 13 -30 26 -16
14 -29 19 -33 13z"/>
<path d="M2215 170 c-9 -15 5 -51 16 -44 6 3 17 0 25 -7 8 -6 18 -9 21 -5 9 9
-17 26 -39 26 -21 0 -23 11 -6 28 9 9 9 12 1 12 -7 0 -15 -5 -18 -10z"/>
<path d="M1140 140 c0 -5 10 -15 23 -21 22 -12 22 -12 3 10 -21 23 -26 26 -26
11z"/>
<path d="M2350 126 c0 -2 7 -7 16 -10 8 -3 12 -2 9 4 -6 10 -25 14 -25 6z"/>
<path d="M2287 114 c-16 -16 -6 -34 18 -32 17 2 25 8 23 18 -3 16 -30 25 -41
14z"/>
<path d="M2630 100 l-24 -20 25 3 c13 2 25 11 27 20 4 22 0 21 -28 -3z"/>
<path d="M1188 105 c-9 -9 92 -106 106 -103 10 2 -6 22 -43 55 -32 29 -61 50
-63 48z"/>
<path d="M1143 63 c-7 -2 -13 -16 -13 -29 0 -14 -4 -22 -10 -19 -5 3 -10 1
-10 -4 0 -6 9 -11 21 -11 15 0 19 4 15 16 -5 13 -2 15 14 11 24 -6 27 8 4 17
-9 4 -14 9 -11 13 4 3 18 -2 32 -11 14 -9 25 -12 25 -7 0 20 -42 35 -67 24z"/>
<path d="M2580 63 c0 -7 -3 -12 -7 -12 -22 4 -33 -3 -33 -18 0 -15 -2 -14 -16
3 -8 10 -12 12 -8 4 6 -12 5 -13 -7 -4 -24 18 -54 11 -57 -13 -3 -19 1 -23 25
-23 31 0 99 22 113 36 6 6 6 15 0 24 -7 10 -10 11 -10 3z m-100 -43 c0 -5 -4
-10 -10 -10 -5 0 -10 5 -10 10 0 6 5 10 10 10 6 0 10 -4 10 -10z"/>
<path d="M2625 60 c-3 -5 -1 -10 4 -10 6 0 11 5 11 10 0 6 -2 10 -4 10 -3 0
-8 -4 -11 -10z"/>
</g>
</svg>
